Coordinates
version=1
nRows=29
nColumns=24
inDegrees=yes

Units are S.I. units (second, meters, Newtons, ...)
Angles are in degrees.

endheader
time	pelvis_tilt	pelvis_list	pelvis_rotation	pelvis_tx	pelvis_ty	pelvis_tz	hip_flexion_r	hip_adduction_r	hip_rotation_r	knee_angle_r	ankle_angle_r	subtalar_angle_r	mtp_angle_r	hip_flexion_l	hip_adduction_l	hip_rotation_l	knee_angle_l	ankle_angle_l	subtalar_angle_l	mtp_angle_l	lumbar_extension	lumbar_bending	lumbar_rotation
      6.03000000	     38.70690090	      5.53387132	     10.40430901	      0.75259591	      0.65418281	     -0.26081910	    -17.35919347	      1.34644268	    -14.93220952	    -12.59627290	      5.37876905	     -0.64754047	      0.00000000	    -51.30469778	     -6.06671593	      1.44479132	    -35.94583280	      7.27783252	     16.37911280	      0.00000000	    -63.53465180	      4.52491960	    -10.58079628
      6.03500000	     38.64385790	      5.17521932	     10.42819984	      0.75820498	      0.65435707	     -0.26034690	    -17.20087324	      1.81272087	    -14.23243540	    -13.58533840	      5.54703452	     -1.34374816	      0.00000000	    -50.42180936	     -6.49024301	      0.91045977	    -37.89581456	      5.44127178	     15.92644966	      0.00000000	    -63.40578478	      4.76815802	    -10.34256475
      6.04000000	     38.60817088	      4.83477702	     10.49655595	      0.76378571	      0.65458205	     -0.25992312	    -17.14606778	      2.29522366	    -13.62594783	    -14.45407365	      5.76989084	     -1.95233072	      0.00000000	    -49.51452433	     -6.94064641	      0.44369466	    -39.86470768	      3.54483145	     15.30246453	      0.00000000	    -63.29707883	      5.04756202	    -10.15171882
      6.04500000	     38.69227472	      4.49471852	     10.65229453	      0.76937875	      0.65491469	     -0.25963433	    -17.33808864	      2.83519460	    -13.26274247	    -15.12389975	      6.02995909	     -2.37356117	      0.00000000	    -48.71023028	     -7.48422899	      0.01269007	    -41.79495110	      1.61744973	     14.49527652	      0.00000000	    -63.28305449	      5.43773235	    -10.00009097
      6.05000000	     38.52426912	      4.22392804	     10.63870337	      0.77482763	      0.65513392	     -0.25902756	    -17.19603953	      3.21822037	    -12.70305704	    -15.89506519	      6.45247818	     -2.91801203	      0.00000000	    -47.56298941	     -7.81876003	     -0.43107088	    -43.78044567	     -0.34610892	     13.60538522	      0.00000000	    -63.07637509	      5.54346011	     -9.81868319
      6.05500000	     38.54559193	      3.92733913	     10.75035530	      0.78031126	      0.65550302	     -0.25863566	    -17.40052912	      3.70628739	    -12.40030710	    -16.41833246	      6.85041763	     -3.20594187	      0.00000000	    -46.61751083	     -8.29451220	     -0.81419171	    -45.68091827	     -2.23466053	     12.53068840	      0.00000000	    -63.01653834	      5.82518070	     -9.65142850
      6.06000000	     38.58239459	      3.65264782	     10.84697717	      0.78575119	      0.65592813	     -0.25820032	    -17.68179771	      4.17483283	    -12.24000762	    -16.82968327	      7.28330709	     -3.44431405	      0.00000000	    -45.67618195	     -8.76585962	     -1.23117156	    -47.52140846	     -4.04019857	     11.35958992	      0.00000000	    -62.97969128	      6.07212812	     -9.48769558
      6.06500000	     38.42424497	      3.46653666	     10.85934921	      0.79106591	      0.65630090	     -0.25766150	    -17.74945589	      4.47982380	    -12.05795758	    -17.26752000	      7.88923736	     -3.57887454	      0.00000000	    -44.46940192	     -9.04496070	     -1.52623592	    -49.37823154	     -5.75081149	     10.09012459	      0.00000000	    -62.78413063	      6.13883100	     -9.38215905
      6.07000000	     38.45143523	      3.22387388	     10.93024239	      0.79638607	      0.65681372	     -0.25724178	    -18.12120958	      4.90517304	    -11.97666978	    -17.48952458	      8.37029458	     -3.61439350	      0.00000000	    -43.48674500	     -9.44302281	     -1.83605500	    -51.12193471	     -7.20548143	      8.76855823	      0.00000000	    -62.74948620	      6.33931360	     -9.20185144
      6.07500000	     38.39766149	      3.06226340	     10.95881649	      0.80162697	      0.65735082	     -0.25678181	    -18.44039311	      5.20521963	    -12.01103675	    -17.67540043	      8.97061973	     -3.51761364	      0.00000000	    -42.39940007	     -9.71883150	     -2.08267782	    -52.81756959	     -8.47894530	      7.40521243	      0.00000000	    -62.65407054	      6.42548432	     -9.08464464
      6.08000000	     38.37906699	      2.89987402	     10.98481646	      0.80685384	      0.65796144	     -0.25634264	    -18.85748171	      5.51256297	    -12.10145985	    -17.74685811	      9.53764071	     -3.34518843	      0.00000000	    -41.36215203	     -9.98949067	     -2.30835107	    -54.42937925	     -9.46756484	      6.08081021	      0.00000000	    -62.58690058	      6.51077690	     -8.93395396
      6.08500000	     38.46800826	      2.68885013	     10.99302484	      0.81215890	      0.65866751	     -0.25591536	    -19.46619830	      5.89943932	    -12.16790786	    -17.66544918	     10.02572371	     -3.21894172	      0.00000000	    -40.49443714	    -10.30372095	     -2.57514182	    -55.91267825	    -10.10510119	      4.84215947	      0.00000000	    -62.59002451	      6.62049175	     -8.62884965
      6.09000000	     38.52130352	      2.56405642	     10.93935411	      0.81729045	      0.65942396	     -0.25550625	    -20.04975811	      6.14177075	    -12.30184302	    -17.58010983	     10.55505499	     -2.89662096	      0.00000000	    -39.57640733	    -10.45778816	     -2.77934178	    -57.34390432	    -10.49724656	      3.56169792	      0.00000000	    -62.60374941	      6.63621970	     -8.42399376
      6.09500000	     38.54881708	      2.47658310	     10.85868624	      0.82236498	      0.66022625	     -0.25512509	    -20.63697941	      6.31768218	    -12.48011946	    -17.44724749	     11.09067080	     -2.46737299	      0.00000000	    -38.63445789	    -10.53213935	     -2.94343394	    -58.70586542	    -10.60116238	      2.39259950	      0.00000000	    -62.60432791	      6.59891443	     -8.24541088
      6.10000000	     38.55856594	      2.42453501	     10.75646779	      0.82740248	      0.66108132	     -0.25474305	    -21.23912405	      6.43930488	    -12.68957166	    -17.26189228	     11.60378840	     -1.95279548	      0.00000000	    -37.68128370	    -10.54316746	     -3.08190144	    -59.98731215	    -10.44843420	      1.32615420	      0.00000000	    -62.59184816	      6.52616299	     -8.07979170
      6.10500000	     38.49113028	      2.46512348	     10.68058746	      0.83230462	      0.66192504	     -0.25437290	    -21.76458870	      6.44890895	    -13.01844697	    -17.08753405	     12.21505884	     -1.30889596	      0.00000000	    -36.59941522	    -10.45466491	     -3.09411484	    -61.25109264	    -10.07573381	      0.43671526	      0.00000000	    -62.53753084	      6.40510740	     -8.09154014
      6.11000000	     38.56574268	      2.38944264	     10.50930995	      0.83731721	      0.66287217	     -0.25400394	    -22.48574517	      6.58400246	    -13.11285792	    -16.79345490	     12.58184617	     -0.88497939	      0.00000000	    -35.76641385	    -10.42227716	     -3.28537829	    -62.34034214	     -9.45156356	     -0.40226172	      0.00000000	    -62.58557153	      6.30512744	     -7.81696725
      6.11500000	     38.61728140	      2.38470731	     10.28648329	      0.84223645	      0.66382389	     -0.25361196	    -23.18393647	      6.60589297	    -13.22777997	    -16.51945673	     13.05215305	     -0.31498133	      0.00000000	    -34.91432501	    -10.27104276	     -3.45796716	    -63.35051270	     -8.65991848	     -1.12984707	      0.00000000	    -62.63362991	      6.11828822	     -7.61979926
      6.12000000	     38.66100692	      2.40335576	     10.03872186	      0.84713905	      0.66479485	     -0.25320926	    -23.89048135	      6.59394906	    -13.29644690	    -16.21611120	     13.47172810	      0.18715673	      0.00000000	    -34.06963039	    -10.06988407	     -3.63096108	    -64.26671961	     -7.71795842	     -1.74156550	      0.00000000	    -62.67609136	      5.89153792	     -7.44170152
      6.12500000	     38.67146711	      2.44485341	      9.75435148	      0.85208160	      0.66579166	     -0.25284641	    -24.58931672	      6.52763467	    -13.33370138	    -15.87270832	     13.83476423	      0.72806075	      0.00000000	    -33.21829187	     -9.79485268	     -3.80617336	    -65.07009301	     -6.68815216	     -2.26418228	      0.00000000	    -62.67268109	      5.62413714	     -7.25330954
      6.13000000	     38.68825010	      2.48695526	      9.44296232	      0.85694153	      0.66676489	     -0.25244658	    -25.27734313	      6.44983424	    -13.30701563	    -15.54430288	     14.18196215	      1.19110616	      0.00000000	    -32.37257986	     -9.50458949	     -4.01447817	    -65.79936810	     -5.60536498	     -2.70072067	      0.00000000	    -62.69273592	      5.33600220	     -7.07101753
      6.13500000	     38.71212117	      2.52920069	      9.11330894	      0.86175145	      0.66770626	     -0.25202868	    -25.96307692	      6.36507043	    -13.21796065	    -15.22238659	     14.52630554	      1.57168255	      0.00000000	    -31.53784506	     -9.20350537	     -4.24798438	    -66.45125428	     -4.49183442	     -3.06577042	      0.00000000	    -62.73333140	      5.03402176	     -6.89990640
      6.14000000	     38.69410697	      2.57540696	      8.72893217	      0.86659463	      0.66865022	     -0.25166565	    -26.61415631	      6.22671982	    -13.06769609	    -14.88400017	     14.81544516	      2.01523703	      0.00000000	    -30.69022207	     -8.83205951	     -4.50287678	    -66.98683433	     -3.38383497	     -3.34149264	      0.00000000	    -62.71882966	      4.70109737	     -6.68413726
      6.14500000	     38.68053710	      2.61736381	      8.33415920	      0.87137162	      0.66954126	     -0.25125986	    -27.25110920	      6.09024121	    -12.87266089	    -14.56152443	     15.11873958	      2.36374310	      0.00000000	    -29.84394884	     -8.46845539	     -4.78515276	    -67.45203047	     -2.28990968	     -3.56314950	      0.00000000	    -62.72198365	      4.35878213	     -6.48978107
      6.15000000	     38.64992851	      2.65472693	      7.91302792	      0.87613825	      0.67040452	     -0.25089159	    -27.86505728	      5.93223223	    -12.62895724	    -14.23851624	     15.38150943	      2.68595878	      0.00000000	    -28.99447213	     -8.07889430	     -5.08661417	    -67.82406973	     -1.23691571	     -3.72909877	      0.00000000	    -62.70692941	      4.00857080	     -6.27582067
      6.15500000	     38.58820268	      2.63972270	      7.41012200	      0.88088951	      0.67121463	     -0.25051675	    -28.41606396	      5.76664185	    -12.28063617	    -13.94566816	     15.63082683	      2.96169659	      0.00000000	    -28.13886245	     -7.68937100	     -5.49992583	    -68.09938185	     -0.25141067	     -3.90317833	      0.00000000	    -62.66581134	      3.62780160	     -5.94193018
      6.16000000	     38.58512617	      2.72617457	      7.11154393	      0.88558632	      0.67201158	     -0.25028839	    -29.08076364	      5.62503974	    -12.10129135	    -13.57011462	     15.78816694	      3.05788443	      0.00000000	    -27.29826442	     -7.30383869	     -5.67496489	    -68.32716687	      0.70144810	     -4.08523554	      0.00000000	    -62.68770306	      3.36833605	     -5.87009718
      6.16500000	     38.52330636	      2.73826203	      6.62008054	      0.89028931	      0.67271454	     -0.24993300	    -29.62375328	      5.41967193	    -11.79104065	    -13.28864151	     16.12276151	      3.46654294	      0.00000000	    -26.44960201	     -6.89487204	     -6.03678140	    -68.45538195	      1.64258654	     -3.95416541	      0.00000000	    -62.64782397	      2.98862160	     -5.66602417
      6.17000000	     38.46510230	      2.73409276	      6.14903810	      0.89496404	      0.67338360	     -0.24965787	    -30.16884182	      5.23412483	    -11.48300783	    -12.99096262	     16.37604787	      3.73168637	      0.00000000	    -25.61258769	     -6.50237815	     -6.40345482	    -68.49559318	      2.50404032	     -3.96998335	      0.00000000	    -62.61769350	      2.65201076	     -5.41822495
